# Blender v2.76 (sub 0) OBJ File: ''
# www.blender.org
mtllib EarlyShyGuy.mtl
o EarlyShyGuy
v 0.130371 0.002410 -0.130371
v 0.130371 0.438689 -0.130371
v 0.184326 0.002410 0.000000
v 0.184326 0.403533 0.000000
v 0.130371 0.002410 0.130371
v 0.130371 0.468963 0.130371
v 0.000000 0.002410 0.184326
v 0.000000 0.499480 0.184326
v -0.130371 0.002410 0.130371
v -0.130371 0.468963 0.130371
v -0.184326 0.002410 0.000000
v -0.184326 0.403533 0.000000
v -0.130371 0.002410 -0.130371
v -0.130371 0.438689 -0.130371
v 0.000000 0.002410 -0.184326
v 0.000000 0.393767 -0.184326
v 0.130371 0.002410 -0.130371
v 0.130371 0.438689 -0.130371
v -0.184326 0.403533 0.000000
v -0.130371 0.468963 0.130371
v -0.116943 0.528777 -0.044189
v 0.000000 0.567351 0.069824
v 0.000000 0.590301 -0.165039
v 0.116943 0.528777 -0.044189
v 0.000000 0.471892 -0.287842
v 0.130371 0.438689 -0.130371
v -0.130371 0.468963 0.130371
v 0.000000 0.499480 0.184326
v 0.000000 0.567351 0.069824
v 0.130371 0.468963 0.130371
v 0.116943 0.528777 -0.044189
v 0.184326 0.403533 0.000000
v 0.130371 0.438689 -0.130371
v -0.184326 0.403533 0.000000
v -0.116943 0.528777 -0.044189
v -0.130371 0.438689 -0.130371
v 0.000000 0.471892 -0.287842
v 0.000000 0.393767 -0.184326
v 0.130371 0.438689 -0.130371
v 0.000000 0.590301 -0.165039
v 0.000000 0.471892 -0.287842
v -0.116943 0.528777 -0.044189
vt 0.679714 -1.000000
vt 0.679714 -0.257813
vt 0.404324 -1.000000
vt 0.404324 -0.318359
vt 0.128933 -1.000000
vt 0.128933 -0.207031
vt 0.013699 -1.000000
vt 0.013699 -0.154297
vt 0.794949 -1.000000
vt 0.794949 -0.333984
vt 0.498074 -0.103516
vt 0.255886 -0.039063
vt 0.753933 0.000000
vt 0.986301 -0.201172
vn 0.924000 0.000000 -0.382400
vn 0.990600 0.000000 -0.136600
vn 0.990600 0.000000 0.136700
vn 0.797200 -0.000000 0.603700
vn 0.603600 -0.000000 0.797300
vn 0.136700 -0.000000 0.990600
vn -0.136700 -0.000000 0.990600
vn -0.603600 -0.000000 0.797300
vn -0.797200 -0.000000 0.603700
vn -0.990600 -0.000000 0.136700
vn -0.990600 0.000000 -0.136600
vn -0.797200 0.000000 -0.603700
vn -0.603700 0.000000 -0.797200
vn -0.136600 0.000000 -0.990600
vn 0.136700 0.000000 -0.990600
vn 0.382400 0.000000 -0.924000
vn -0.859800 0.499700 0.105100
vn -0.706900 0.684000 0.180000
vn -0.610200 0.777500 0.152000
vn -0.186000 0.970400 0.154300
vn 0.301500 0.946200 -0.117800
vn 0.652300 0.695900 -0.300400
vn 0.718900 0.516200 -0.465500
vn 0.698000 0.546600 -0.462600
vn -0.381200 0.795300 0.471400
vn 0.000000 0.860200 0.509900
vn 0.186100 0.881900 0.433100
vn 0.610200 0.738900 0.285800
vn 0.796700 0.603600 0.030200
vn 0.889300 0.450100 -0.080500
vn 0.885300 0.383500 -0.263000
vn -0.885300 0.383500 -0.263000
vn -0.801900 0.471100 -0.367500
vn -0.848200 0.092500 -0.521500
vn -0.369000 -0.458400 -0.808600
vn 0.000000 -0.798200 -0.602400
vn 0.464400 -0.706900 -0.533500
vn -0.738700 0.485200 -0.467800
usemtl _E_HH
s 1
f 1/1/1 2/2/1 3/3/2
f 2/2/1 4/4/3 3/3/2
f 3/3/2 4/4/3 5/5/4
f 4/4/3 6/6/5 5/5/4
f 5/5/4 6/6/5 7/7/6
f 6/6/5 8/8/7 7/7/6
f 7/7/6 8/8/7 9/5/8
f 8/8/7 10/6/9 9/5/8
f 9/5/8 10/6/9 11/3/10
f 10/6/9 12/4/11 11/3/10
f 11/3/10 12/4/11 13/1/12
f 12/4/11 14/2/13 13/1/12
f 13/1/12 14/2/13 15/9/14
f 14/2/13 16/10/15 15/9/14
f 15/9/14 16/10/15 17/1/16
f 16/10/15 18/2/16 17/1/16
f 19/4/17 20/6/18 21/11/19
f 20/6/18 22/12/20 21/11/19
f 21/11/19 22/12/20 23/13/21
f 22/12/20 24/11/22 23/13/21
f 23/13/21 24/11/22 25/14/23
f 24/11/22 26/2/24 25/14/23
f 27/6/25 28/8/26 29/12/27
f 28/8/26 30/6/28 29/12/27
f 29/12/27 30/6/28 31/11/29
f 30/6/28 32/4/30 31/11/29
f 31/11/29 32/4/30 33/2/31
f 34/4/32 35/11/33 36/2/34
f 35/11/33 37/14/35 36/2/34
f 36/2/34 37/14/35 38/10/36
f 37/14/35 39/2/37 38/10/36
f 40/13/38 41/14/38 42/11/38
