# Blender 5.0.1
# www.blender.org
mtllib EarlyShyGuy.mtl
o EarlyShyGuy
v 0.130371 0.002410 -0.130371
v 0.130371 0.438689 -0.130371
v 0.184326 0.002410 -0.000000
v 0.184326 0.403533 -0.000000
v 0.130371 0.002410 0.130371
v 0.130371 0.468963 0.130371
v 0.000000 0.002410 0.184326
v 0.000000 0.499480 0.184326
v -0.130371 0.002410 0.130371
v -0.130371 0.468963 0.130371
v -0.184326 0.002410 -0.000000
v -0.184326 0.403533 -0.000000
v -0.130371 0.002410 -0.130371
v -0.130371 0.438689 -0.130371
v 0.000000 0.002410 -0.184326
v 0.000000 0.393767 -0.184326
v 0.130371 0.002410 -0.130371
v 0.130371 0.438689 -0.130371
v -0.184326 0.403533 -0.000000
v -0.130371 0.468963 0.130371
v -0.116943 0.528777 -0.044189
v 0.000000 0.567351 0.069824
v 0.000000 0.590301 -0.165039
v 0.116943 0.528777 -0.044189
v 0.000000 0.471892 -0.287842
v 0.130371 0.438689 -0.130371
v -0.130371 0.468963 0.130371
v 0.000000 0.499480 0.184326
v 0.000000 0.567351 0.069824
v 0.130371 0.468963 0.130371
v 0.116943 0.528777 -0.044189
v 0.184326 0.403533 -0.000000
v 0.130371 0.438689 -0.130371
v -0.184326 0.403533 -0.000000
v -0.116943 0.528777 -0.044189
v -0.130371 0.438689 -0.130371
v 0.000000 0.471892 -0.287842
v 0.000000 0.393767 -0.184326
v 0.130371 0.438689 -0.130371
v 0.000000 0.590301 -0.165039
v 0.000000 0.471892 -0.287842
v -0.116943 0.528777 -0.044189
vn 0.9240 -0.0000 -0.3824
vn 0.8717 -0.0000 -0.4900
vn 0.9107 -0.1000 -0.4007
vn 0.9033 0.1137 -0.4136
vn 0.9174 0.1195 0.3797
vn 0.9076 -0.0978 0.4082
vn 0.9631 -0.0000 0.2692
vn 0.8811 0.0239 0.4724
vn 0.9246 -0.0403 0.3788
vn 0.9325 0.1127 0.3430
vn 0.3797 0.1195 0.9174
vn 0.3721 -0.0390 0.9274
vn 0.4903 -0.0000 0.8716
vn 0.3449 0.0040 0.9386
vn 0.3453 -0.1142 0.9315
vn 0.4117 0.1146 0.9041
vn -0.3797 0.1197 0.9174
vn -0.4477 -0.0949 0.8891
vn -0.2687 -0.0000 0.9632
vn -0.4898 0.0143 0.8717
vn -0.4847 -0.1604 0.8598
vn -0.3494 0.1155 0.9298
vn -0.9173 0.1200 0.3796
vn -0.9749 -0.0827 0.2067
vn -0.8716 -0.0000 0.4903
vn -0.9774 0.0662 0.2007
vn -0.9079 -0.1367 0.3962
vn -0.9041 0.1146 0.4117
vn -0.9174 0.1197 -0.3797
vn -0.8988 -0.1312 -0.4183
vn -0.9631 -0.0000 -0.2692
vn -0.8629 0.0196 -0.5050
vn -0.8952 -0.1167 -0.4302
vn -0.9325 0.1127 -0.3430
vn -0.3797 0.1195 -0.9174
vn -0.2900 -0.0857 -0.9532
vn -0.4900 -0.0000 -0.8717
vn -0.2617 0.0215 -0.9649
vn -0.3977 -0.1184 -0.9098
vn -0.4136 0.1137 -0.9033
vn 0.3797 0.1195 -0.9174
vn 0.4141 -0.1141 -0.9031
vn 0.3824 -0.0000 -0.9240
vn 0.4889 0.0208 -0.8721
vn -0.8598 0.4997 0.1051
vn -0.8650 0.4910 0.1035
vn -0.8799 0.4646 0.0996
vn -0.5156 0.8239 0.2354
vn -0.5155 0.8305 0.2112
vn -0.5264 0.8047 0.2745
vn -0.3724 0.9194 0.1264
vn -0.3681 0.9274 0.0666
vn -0.5611 0.8207 0.1078
vn 0.4201 0.9030 0.0901
vn 0.3215 0.9468 -0.0138
vn 0.2738 0.9291 0.2486
vn 0.8192 0.4959 -0.2881
vn 0.6960 0.4305 -0.5747
vn 0.7344 0.4917 -0.4679
vn 0.7261 0.4407 -0.5277
vn 0.6980 0.5466 -0.4626
vn 0.6959 0.5528 -0.4583
vn -0.3812 0.7953 0.4714
vn -0.4018 0.7862 0.4696
vn 0.3812 0.7953 0.4714
vn 0.3826 0.7927 0.4747
vn 0.3713 0.7884 0.4904
vn 0.5202 0.8136 0.2598
vn 0.5080 0.8250 0.2477
vn 0.5043 0.8265 0.2503
vn 0.8577 0.5030 0.1069
vn 0.8550 0.5136 0.0724
vn 0.8610 0.4959 0.1128
vn 0.8890 0.3758 -0.2617
vn 0.8847 0.3630 -0.2924
vn 0.8853 0.3835 -0.2630
vn -0.8853 0.3835 -0.2630
vn -0.8771 0.3845 -0.2878
vn -0.8265 0.3503 -0.4406
vn -0.6790 0.5613 -0.4731
vn -0.5716 0.6697 -0.4740
vn -0.7972 0.3846 -0.4654
vn -0.5921 -0.7035 -0.3930
vn -0.5538 -0.5721 -0.6049
vn -0.4644 -0.7069 -0.5335
vn 0.3021 -0.7489 -0.5898
vn 0.4644 -0.7069 -0.5335
vn -0.7387 0.4852 -0.4678
vn -0.0000 -0.0000 -0.0000
vn -0.0457 -0.9928 0.1104
vn -0.1104 -0.9928 0.0457
vn -0.1106 -0.9928 -0.0458
vn -0.0459 -0.9928 -0.1109
vn 0.0458 -0.9928 -0.1106
vn 0.1104 -0.9928 -0.0457
vn 0.1104 -0.9928 0.0457
vt 0.679714 -1.000000
vt 0.679714 -0.257813
vt 0.404324 -1.000000
vt 0.404324 -0.318359
vt 0.128933 -1.000000
vt 0.128933 -0.207031
vt 0.013699 -1.000000
vt 0.013699 -0.154297
vt 0.794949 -1.000000
vt 0.794949 -0.333984
vt 0.498074 -0.103516
vt 0.255886 -0.039063
vt 0.753933 0.000000
vt 0.986301 -0.201172
s 0
usemtl _E_HH
f 1/1/1 2/2/1 3/3/2
f 2/2/1 4/4/3 3/3/4
f 3/3/5 4/4/6 5/5/7
f 4/4/8 6/6/9 5/5/10
f 5/5/11 6/6/12 7/7/13
f 6/6/14 8/8/15 7/7/16
f 7/7/17 8/8/18 9/5/19
f 8/8/20 10/6/21 9/5/22
f 9/5/23 10/6/24 11/3/25
f 10/6/26 12/4/27 11/3/28
f 11/3/29 12/4/30 13/1/31
f 12/4/32 14/2/33 13/1/34
f 13/1/35 14/2/36 15/9/37
f 14/2/38 16/10/39 15/9/40
f 15/9/41 16/10/42 17/1/43
f 16/10/44 18/2/43 17/1/43
f 19/4/45 20/6/46 21/11/47
f 20/6/48 22/12/49 21/11/50
f 21/11/51 22/12/52 23/13/53
f 22/12/54 24/11/55 23/13/56
f 23/13/57 24/11/58 25/14/59
f 24/11/60 26/2/61 25/14/62
f 27/6/63 28/8/63 29/12/64
f 28/8/65 30/6/66 29/12/67
f 29/12/68 30/6/69 31/11/70
f 30/6/71 32/4/72 31/11/73
f 31/11/74 32/4/75 33/2/76
f 34/4/77 35/11/78 36/2/79
f 35/11/80 37/14/81 36/2/82
f 36/2/83 37/14/84 38/10/85
f 37/14/86 39/2/87 38/10/87
f 40/13/88 41/14/88 42/11/88
f 1/1/89 3/3/90 5/5/91 7/7/92 9/5/93 11/3/94 13/1/95 15/9/96 17/1/89 18/2/89
